<svg fill="none" xmlns="http://www.w3.org/2000/svg">
	<symbol viewBox="0 0 16 45" id="down">
		<path d="M7.29289 44.7071C7.68342 45.0976 8.31658 45.0976 8.70711 44.7071L15.0711 38.3431C15.4616 37.9526 15.4616 37.3195 15.0711 36.9289C14.6805 36.5384 14.0474 36.5384 13.6569 36.9289L8 42.5858L2.34315 36.9289C1.95262 36.5384 1.31946 36.5384 0.928932 36.9289C0.538408 37.3195 0.538408 37.9526 0.928932 38.3431L7.29289 44.7071ZM8 0L7 0L7 44H8H9L9 0L8 0Z" fill="currentColor" />
	</symbol>
	<symbol viewBox="0 0 15 8" id="right">
		<path d="M14.3536 4.35355C14.5488 4.15829 14.5488 3.84171 14.3536 3.64645L11.1716 0.464466C10.9763 0.269204 10.6597 0.269204 10.4645 0.464466C10.2692 0.659728 10.2692 0.976311 10.4645 1.17157L13.2929 4L10.4645 6.82843C10.2692 7.02369 10.2692 7.34027 10.4645 7.53553C10.6597 7.7308 10.9763 7.7308 11.1716 7.53553L14.3536 4.35355ZM0 4V4.5H14V4V3.5H0V4Z" fill="currentColor" />
	</symbol>
	<symbol viewBox="0 0 23 23" id="link">
		<path d="M22.626 1.375C22.626 0.822714 22.1783 0.374998 21.626 0.374998L12.626 0.374999C12.0737 0.374999 11.626 0.822714 11.626 1.375C11.626 1.92728 12.0737 2.375 12.626 2.375L20.626 2.375L20.626 10.375C20.626 10.9273 21.0737 11.375 21.626 11.375C22.1783 11.375 22.626 10.9273 22.626 10.375L22.626 1.375ZM1.37598 21.625L2.08308 22.3321L22.3331 2.08211L21.626 1.375L20.9189 0.667892L0.66887 20.9179L1.37598 21.625Z" fill="currentColor" />
	</symbol>
	<symbol viewBox="0 0 30 15" id="left">
		<path d="M0.61112 8.34505C0.220596 7.95452 0.220596 7.32136 0.61112 6.93083L6.97508 0.566872C7.36561 0.176347 7.99877 0.176347 8.3893 0.566872C8.77982 0.957396 8.77982 1.59056 8.3893 1.98109L2.73244 7.63794L8.3893 13.2948C8.77982 13.6853 8.77982 14.3185 8.3893 14.709C7.99877 15.0995 7.36561 15.0995 6.97508 14.709L0.61112 8.34505ZM29.9561 7.63794V8.63794L1.31823 8.63794V7.63794V6.63794L29.9561 6.63794V7.63794Z" fill="currentColor"/>
	</symbol>
</svg>
