<svg width="23" height="23" viewBox="0 0 23 23" fill="none" xmlns="http://www.w3.org/2000/svg">
	<path d="M1 8.4854C1 8.05443 1.21935 7.65012 1.58867 7.40037L10.6887 1.24637C11.1744 0.917877 11.8256 0.917878 12.3113 1.24637L21.4113 7.40037C21.7806 7.65012 22 8.05443 22 8.48539V20.0029C22 21.1059 21.0598 22 19.9 22H3.1C1.9402 22 1 21.1059 1 20.0029V8.4854Z" stroke="#D6BFA6" stroke-width="2" />
	<path d="M14.125 12.8125C14.125 14.2622 12.9497 15.4375 11.5 15.4375C10.0503 15.4375 8.875 14.2622 8.875 12.8125C8.875 11.3628 10.0503 10.1875 11.5 10.1875C12.9497 10.1875 14.125 11.3628 14.125 12.8125Z" stroke="#D6BFA6" stroke-width="2" />
</svg>
