<svg width="146" height="32" viewBox="0 0 146 32" fill="none" xmlns="http://www.w3.org/2000/svg">
<path d="M57.0286 27.0571C53.9143 27.0571 51.0857 26.1143 48.8857 24.2857L51.0286 20.7143C52.7715 22.2285 55.2 22.9714 57.2572 22.9714C59.1429 22.9714 60.2 22.2571 60.2 21.0857C60.2 19.6285 58.4 19.1428 56.3143 18.5714C53.0286 17.6571 49.3143 16.4285 49.3143 12.3143C49.3143 8.37139 52.6572 6.34282 56.1715 6.34282C59.2 6.34282 61.7429 7.19997 63.8 8.79996L61.5715 12.3428C60.1143 11.0857 57.9429 10.4 56.2572 10.4C54.6286 10.4 53.6572 11.1143 53.6572 12.2285C53.6572 13.6285 55.4 14.0857 57.6 14.6571C61.1429 15.6 64.6572 16.9143 64.6572 20.8857C64.6572 24.8285 61.3429 27.0571 57.0286 27.0571Z" fill="#D6BFA6"/>
<path d="M67.44 26.7143V6.14282H71.6971V17.9714H72.0114L77.44 11.8571H82.0686L75.64 18.6857L82.1543 26.7143H77.2114L71.9828 19.8285H71.6971V26.7143H67.44Z" fill="#D6BFA6"/>
<path d="M90.2058 27.0285C85.5773 27.0285 82.3487 24 82.3487 19.5714V19.0857C82.3487 14.7428 85.663 11.5714 90.063 11.5714H90.3201C94.5201 11.5714 97.5487 14.4571 97.5487 18.3428V20.4571H86.4915C86.7487 22.4 88.263 23.6285 90.463 23.6285H90.6344C92.4058 23.6285 93.9773 22.8285 94.8915 21.8571L96.9773 24.5142C95.5487 25.9714 92.9201 27.0285 90.5773 27.0285H90.2058ZM86.6058 17.8571H93.5201C93.4058 16 92.0915 14.6857 90.2058 14.6857H90.1201C88.3487 14.6857 86.9773 15.8857 86.6058 17.8571Z" fill="#D6BFA6"/>
<path d="M100.672 26.7143V6.14282H104.929V26.7143H100.672Z" fill="#D6BFA6"/>
<path d="M114.135 26.9143C111.077 26.9143 109.22 25.2571 109.22 22.0285V15.1428H107.277V12.3143C107.792 12.1428 108.563 11.9714 109.22 11.9143V8.42854L113.449 7.91425V11.8571H117.906V15.1428H113.42V21.2571C113.42 22.7714 114.135 23.3428 115.42 23.3428C116.163 23.3428 117.42 23.1428 117.992 23.0285V26.2571C116.992 26.6857 115.277 26.9143 114.135 26.9143Z" fill="#D6BFA6"/>
<path d="M120.593 26.7143V11.8571H123.993C124.193 12.4285 124.364 13.3714 124.421 14C125.564 12.6571 127.279 11.8571 129.364 11.8571H129.736V15.8571C129.45 15.7714 129.021 15.6571 128.621 15.6571C126.164 15.6571 124.85 16.9143 124.85 18.8571V26.7143H120.593Z" fill="#D6BFA6"/>
<path d="M136.344 27.0285C133.316 27.0285 131.173 25.2571 131.173 22.6V22.3428C131.173 19.1714 134.144 17.5142 140.059 17.5142H141.173V17.0857C141.173 15.7714 140.259 14.8857 138.43 14.8857H138.316C136.83 14.8857 135.087 15.4285 133.516 16.3142L131.887 13.3714C133.687 12.2571 136.116 11.5428 138.516 11.5428H138.773C142.687 11.5428 145.173 13.6571 145.173 17.2285V23.3143C145.173 24.5142 145.401 25.6 145.687 26.7143H141.687C141.516 26.2571 141.373 25.6571 141.316 25C140.173 26.1714 138.459 27.0285 136.344 27.0285ZM137.43 23.8C138.83 23.8 140.259 23.2285 141.201 22.2285V20H140.173C136.83 20 135.23 20.7428 135.23 22.1143V22.2C135.23 23.1428 136.116 23.8 137.43 23.8Z" fill="#D6BFA6"/>
<path d="M1 11.6934C1 11.0778 1.31336 10.5002 1.84095 10.1434L14.841 1.35195C15.5349 0.882682 16.4651 0.882683 17.159 1.35195L30.159 10.1434C30.6866 10.5002 31 11.0778 31 11.6934V28.147C31 29.7227 29.6569 31 28 31H4C2.34315 31 1 29.7227 1 28.147V11.6934Z" stroke="#D6BFA6" stroke-width="2"/>
<path d="M19.75 17.875C19.75 19.9461 18.0711 21.625 16 21.625C13.9289 21.625 12.25 19.9461 12.25 17.875C12.25 15.8039 13.9289 14.125 16 14.125C18.0711 14.125 19.75 15.8039 19.75 17.875Z" stroke="#D6BFA6" stroke-width="2"/>
</svg>
