<svg width="20" height="20" viewBox="0 0 20 20" fill="none" xmlns="http://www.w3.org/2000/svg">
	<path d="M6.87599 10C6.87599 8.27417 8.27466 6.87475 10.0005 6.87475C11.7263 6.87475 13.1257 8.27417 13.1257 10C13.1257 11.7258 11.7263 13.1252 10.0005 13.1252C8.27466 13.1252 6.87599 11.7258 6.87599 10ZM5.18654 10C5.18654 12.6587 7.34174 14.8139 10.0005 14.8139C12.6592 14.8139 14.8144 12.6587 14.8144 10C14.8144 7.34125 12.6592 5.18605 10.0005 5.18605C7.34174 5.18605 5.18654 7.34125 5.18654 10ZM13.88 4.99517C13.8799 5.21768 13.9458 5.43521 14.0694 5.62027C14.1929 5.80532 14.3685 5.94959 14.5741 6.03482C14.7796 6.12005 15.0058 6.14242 15.224 6.0991C15.4423 6.05577 15.6428 5.94871 15.8002 5.79144C15.9576 5.63417 16.0648 5.43375 16.1083 5.21554C16.1518 4.99733 16.1296 4.77112 16.0445 4.56552C15.9595 4.35992 15.8154 4.18416 15.6304 4.06047C15.4454 3.93678 15.228 3.87071 15.0055 3.87063H15.005C14.7068 3.87076 14.4208 3.98927 14.2098 4.20012C13.9989 4.41098 13.8803 4.69693 13.88 4.99517ZM6.21299 17.631C5.29896 17.5894 4.80216 17.4371 4.47201 17.3085C4.03431 17.1381 3.72201 16.9352 3.39366 16.6073C3.06531 16.2794 2.86206 15.9674 2.69241 15.5297C2.56371 15.1997 2.41146 14.7027 2.36991 13.7887C2.32446 12.8005 2.31539 12.5036 2.31539 10.0001C2.31539 7.4965 2.32521 7.20047 2.36991 6.21145C2.41154 5.29742 2.56491 4.80145 2.69241 4.47047C2.86281 4.03277 3.06576 3.72047 3.39366 3.39213C3.72156 3.06378 4.03356 2.86053 4.47201 2.69088C4.80201 2.56218 5.29896 2.40992 6.21299 2.36837C7.20119 2.32292 7.49804 2.31385 10.0005 2.31385C12.5029 2.31385 12.8001 2.32367 13.7891 2.36837C14.7031 2.41 15.1991 2.56337 15.5301 2.69088C15.9678 2.86053 16.2801 3.06422 16.6084 3.39213C16.9368 3.72003 17.1393 4.03277 17.3097 4.47047C17.4384 4.80047 17.5906 5.29742 17.6322 6.21145C17.6776 7.20047 17.6867 7.4965 17.6867 10.0001C17.6867 12.5036 17.6776 12.7997 17.6322 13.7887C17.5906 14.7027 17.4376 15.1995 17.3097 15.5297C17.1393 15.9674 16.9363 16.2797 16.6084 16.6073C16.2805 16.9349 15.9678 17.1381 15.5301 17.3085C15.2001 17.4372 14.7031 17.5895 13.7891 17.631C12.8009 17.6765 12.5041 17.6855 10.0005 17.6855C7.49691 17.6855 7.20089 17.6765 6.21299 17.631ZM6.13536 0.681775C5.13734 0.727225 4.45536 0.885475 3.85979 1.11722C3.24299 1.35655 2.72084 1.67762 2.19906 2.19857C1.67729 2.71952 1.35704 3.2425 1.11771 3.8593C0.885963 4.45525 0.727713 5.13685 0.682263 6.13488C0.636063 7.13448 0.625488 7.45405 0.625488 10C0.625488 12.5459 0.636063 12.8655 0.682263 13.8651C0.727713 14.8632 0.885963 15.5448 1.11771 16.1407C1.35704 16.7571 1.67736 17.2807 2.19906 17.8014C2.72076 18.3221 3.24299 18.6428 3.85979 18.8828C4.45649 19.1145 5.13734 19.2728 6.13536 19.3182C7.13549 19.3637 7.45454 19.375 10.0005 19.375C12.5464 19.375 12.866 19.3644 13.8656 19.3182C14.8637 19.2728 15.5452 19.1145 16.1412 18.8828C16.7576 18.6428 17.2801 18.3224 17.8019 17.8014C18.3237 17.2805 18.6433 16.7571 18.8833 16.1407C19.115 15.5448 19.274 14.8631 19.3187 13.8651C19.3642 12.8648 19.3747 12.5459 19.3747 10C19.3747 7.45405 19.3642 7.13448 19.3187 6.13488C19.2733 5.13678 19.115 4.45487 18.8833 3.8593C18.6433 3.24287 18.3229 2.72035 17.8019 2.19857C17.281 1.6768 16.7576 1.35655 16.1419 1.11722C15.5452 0.885475 14.8636 0.726475 13.8664 0.681775C12.8668 0.636325 12.5472 0.625 10.0012 0.625C7.45529 0.625 7.13549 0.635575 6.13536 0.681775Z" fill="currentColor" />
</svg>
