<svg width="17" height="17" viewBox="0 0 17 17" fill="none" xmlns="http://www.w3.org/2000/svg">
	<path d="M16.3281 16.079C15.3438 16.0555 14.3828 16.0555 13.3984 16.079C13.1875 16.079 13.1406 16.0321 13.1406 15.8212C13.1406 14.0868 13.1406 12.329 13.1406 10.5946C13.1406 10.1962 13.1172 9.79772 13 9.42272C12.6484 8.20397 11.2422 7.75865 10.2344 8.57897C9.69531 9.00084 9.48438 9.58678 9.48438 10.2899C9.48438 11.9305 9.48438 13.5712 9.48438 15.2118C9.48438 15.4227 9.46094 15.6337 9.48438 15.868C9.50781 16.0555 9.41406 16.1024 9.25 16.079C8.24219 16.079 7.25781 16.079 6.25 16.079C6.0625 16.079 6.01562 16.0321 6.01562 15.8446C6.03906 14.368 6.03906 12.8915 6.03906 11.3915C6.03906 9.56334 6.03906 7.73522 6.01562 5.93053C6.01562 5.71959 6.0625 5.67272 6.25 5.67272C7.25781 5.67272 8.24219 5.67272 9.25 5.67272C9.4375 5.67272 9.48438 5.71959 9.48438 5.90709C9.48438 6.28209 9.48438 6.65709 9.48438 7.1024C9.55469 7.03209 9.57813 7.00865 9.60156 6.98522C10.5156 5.64928 11.8047 5.27428 13.3281 5.50865C15.0859 5.7899 16.2109 7.00865 16.4922 8.88365C16.5625 9.32897 16.5859 9.77428 16.5859 10.2196C16.5859 12.0946 16.5859 13.9462 16.5859 15.8212C16.5859 16.0087 16.5391 16.079 16.3281 16.079Z" fill="currentColor" />
	<path d="M4.14062 10.876C4.14062 12.5166 4.14062 14.1572 4.14062 15.7979C4.14062 16.0088 4.09375 16.0791 3.88281 16.0791C2.89844 16.0557 1.91406 16.0791 0.929687 16.0791C0.742187 16.0791 0.695312 16.0322 0.695312 15.8447C0.695312 12.54 0.695312 9.21191 0.695312 5.90723C0.695312 5.74316 0.742187 5.67285 0.929687 5.67285C1.9375 5.67285 2.94531 5.67285 3.95312 5.67285C4.16406 5.67285 4.1875 5.74316 4.1875 5.93066C4.14062 7.57129 4.14062 9.21191 4.14062 10.876Z" fill="currentColor" />
	<path d="M4.30465 2.95405C4.07028 3.89155 3.10934 4.43062 2.00778 4.24312C0.835904 4.05562 0.179653 2.90718 0.601528 1.78218C0.882778 1.07905 1.56247 0.657178 2.42965 0.680616C3.74215 0.657178 4.60934 1.71187 4.30465 2.95405Z" fill="currentColor" />
</svg>
