<svg width="20" height="14" viewBox="0 0 20 14" fill="none" xmlns="http://www.w3.org/2000/svg">
	<path d="M10 0.435547C10.0176 0.435548 15.8704 0.436033 17.3359 0.836914C18.139 1.05312 18.773 1.68624 18.9893 2.48926C19.3885 3.94811 19.3752 6.98 19.375 7.01465C19.375 7.01465 19.3752 10.057 18.9893 11.5244C18.773 12.3275 18.1391 12.9615 17.3359 13.1777C15.8703 13.5632 10.0176 13.5635 10 13.5635C10 13.5635 4.14736 13.5636 2.66406 13.1621C1.86103 12.9459 1.22704 12.3128 1.01074 11.5098C0.624624 10.058 0.625 6.99902 0.625 6.99902C0.62502 6.95539 0.627428 3.94585 1.01074 2.48926C1.22704 1.68625 1.87647 1.03749 2.66406 0.821289C4.132 0.435278 10 0.435547 10 0.435547ZM8.13086 9.81055L13.0117 6.99902L8.13086 4.18848V9.81055Z" fill="currentColor" />
</svg>
